<mxfile host="app.diagrams.net" modified="2024-01-20T23:35:03.640Z" agent="Mozilla/5.0 (Windows NT 10.0; Win64; x64) AppleWebKit/537.36 (KHTML, like Gecko) Chrome/120.0.0.0 Safari/537.36" etag="2BGhb28vqLawPPtZWXVS" version="22.1.21" type="github">
  <diagram name="Page-1" id="-g1sokEgoNkTT22Q3NUW">
    <mxGraphModel dx="1434" dy="746" grid="1" gridSize="10" guides="1" tooltips="1" connect="1" arrows="1" fold="1" page="1" pageScale="1" pageWidth="850" pageHeight="1100" math="0" shadow="0">
      <root>
        <mxCell id="0" />
        <mxCell id="1" parent="0" />
        <mxCell id="gaTf6uPYXxOhQIoH3Xr2-1" value="Clinical Orthopaedics" style="rounded=0;whiteSpace=wrap;html=1;" vertex="1" parent="1">
          <mxGeometry x="160" y="80" width="120" height="60" as="geometry" />
        </mxCell>
        <mxCell id="gaTf6uPYXxOhQIoH3Xr2-2" value="Fitness Science" style="rounded=0;whiteSpace=wrap;html=1;" vertex="1" parent="1">
          <mxGeometry x="510" y="80" width="120" height="60" as="geometry" />
        </mxCell>
        <mxCell id="gaTf6uPYXxOhQIoH3Xr2-3" value="Physical Therapy" style="rounded=0;whiteSpace=wrap;html=1;" vertex="1" parent="1">
          <mxGeometry x="340" y="80" width="120" height="60" as="geometry" />
        </mxCell>
        <mxCell id="gaTf6uPYXxOhQIoH3Xr2-4" value="Research" style="rounded=0;whiteSpace=wrap;html=1;" vertex="1" parent="1">
          <mxGeometry x="670" y="80" width="120" height="60" as="geometry" />
        </mxCell>
        <mxCell id="gaTf6uPYXxOhQIoH3Xr2-13" style="edgeStyle=orthogonalEdgeStyle;rounded=0;orthogonalLoop=1;jettySize=auto;html=1;exitX=1;exitY=0.5;exitDx=0;exitDy=0;curved=1;entryX=0;entryY=0.5;entryDx=0;entryDy=0;" edge="1" parent="1" source="gaTf6uPYXxOhQIoH3Xr2-5" target="gaTf6uPYXxOhQIoH3Xr2-11">
          <mxGeometry relative="1" as="geometry">
            <mxPoint x="240" y="460" as="targetPoint" />
          </mxGeometry>
        </mxCell>
        <mxCell id="gaTf6uPYXxOhQIoH3Xr2-5" value="Medical Imaging Devices" style="rounded=1;whiteSpace=wrap;html=1;" vertex="1" parent="1">
          <mxGeometry x="20" y="390" width="120" height="60" as="geometry" />
        </mxCell>
        <mxCell id="gaTf6uPYXxOhQIoH3Xr2-15" style="edgeStyle=orthogonalEdgeStyle;rounded=0;orthogonalLoop=1;jettySize=auto;html=1;exitX=1;exitY=0.5;exitDx=0;exitDy=0;curved=1;entryX=0;entryY=0.5;entryDx=0;entryDy=0;" edge="1" parent="1" source="gaTf6uPYXxOhQIoH3Xr2-6" target="gaTf6uPYXxOhQIoH3Xr2-11">
          <mxGeometry relative="1" as="geometry">
            <mxPoint x="240" y="460" as="targetPoint" />
            <Array as="points">
              <mxPoint x="241" y="580" />
              <mxPoint x="241" y="460" />
            </Array>
          </mxGeometry>
        </mxCell>
        <mxCell id="gaTf6uPYXxOhQIoH3Xr2-6" value="Medical Data (Epic)" style="rounded=1;whiteSpace=wrap;html=1;" vertex="1" parent="1">
          <mxGeometry x="20" y="550" width="120" height="60" as="geometry" />
        </mxCell>
        <mxCell id="gaTf6uPYXxOhQIoH3Xr2-12" style="edgeStyle=orthogonalEdgeStyle;rounded=0;orthogonalLoop=1;jettySize=auto;html=1;exitX=1;exitY=0.5;exitDx=0;exitDy=0;entryX=0;entryY=0.5;entryDx=0;entryDy=0;curved=1;" edge="1" parent="1" source="gaTf6uPYXxOhQIoH3Xr2-8" target="gaTf6uPYXxOhQIoH3Xr2-11">
          <mxGeometry relative="1" as="geometry">
            <Array as="points">
              <mxPoint x="230" y="340" />
              <mxPoint x="230" y="460" />
            </Array>
          </mxGeometry>
        </mxCell>
        <mxCell id="gaTf6uPYXxOhQIoH3Xr2-8" value="Clinical Motion Analysis" style="rounded=1;whiteSpace=wrap;html=1;" vertex="1" parent="1">
          <mxGeometry x="20" y="310" width="120" height="60" as="geometry" />
        </mxCell>
        <mxCell id="gaTf6uPYXxOhQIoH3Xr2-14" style="edgeStyle=orthogonalEdgeStyle;rounded=0;orthogonalLoop=1;jettySize=auto;html=1;exitX=1;exitY=0.5;exitDx=0;exitDy=0;curved=1;entryX=0;entryY=0.5;entryDx=0;entryDy=0;" edge="1" parent="1" source="gaTf6uPYXxOhQIoH3Xr2-9" target="gaTf6uPYXxOhQIoH3Xr2-11">
          <mxGeometry relative="1" as="geometry">
            <mxPoint x="240" y="460" as="targetPoint" />
          </mxGeometry>
        </mxCell>
        <mxCell id="gaTf6uPYXxOhQIoH3Xr2-9" value="Patient Data" style="rounded=1;whiteSpace=wrap;html=1;" vertex="1" parent="1">
          <mxGeometry x="20" y="470" width="120" height="60" as="geometry" />
        </mxCell>
        <mxCell id="gaTf6uPYXxOhQIoH3Xr2-17" style="edgeStyle=orthogonalEdgeStyle;rounded=0;orthogonalLoop=1;jettySize=auto;html=1;exitX=1;exitY=0.5;exitDx=0;exitDy=0;entryX=0;entryY=0.5;entryDx=0;entryDy=0;" edge="1" parent="1" source="gaTf6uPYXxOhQIoH3Xr2-11" target="gaTf6uPYXxOhQIoH3Xr2-16">
          <mxGeometry relative="1" as="geometry" />
        </mxCell>
        <mxCell id="gaTf6uPYXxOhQIoH3Xr2-19" style="edgeStyle=orthogonalEdgeStyle;rounded=0;orthogonalLoop=1;jettySize=auto;html=1;exitX=1;exitY=0.5;exitDx=0;exitDy=0;" edge="1" parent="1" source="gaTf6uPYXxOhQIoH3Xr2-11" target="gaTf6uPYXxOhQIoH3Xr2-18">
          <mxGeometry relative="1" as="geometry" />
        </mxCell>
        <mxCell id="gaTf6uPYXxOhQIoH3Xr2-11" value="Data Aggregation" style="triangle;whiteSpace=wrap;html=1;" vertex="1" parent="1">
          <mxGeometry x="260" y="420" width="60" height="80" as="geometry" />
        </mxCell>
        <mxCell id="gaTf6uPYXxOhQIoH3Xr2-23" style="edgeStyle=orthogonalEdgeStyle;rounded=0;orthogonalLoop=1;jettySize=auto;html=1;exitX=1;exitY=0.5;exitDx=0;exitDy=0;" edge="1" parent="1" source="gaTf6uPYXxOhQIoH3Xr2-16" target="gaTf6uPYXxOhQIoH3Xr2-22">
          <mxGeometry relative="1" as="geometry" />
        </mxCell>
        <mxCell id="gaTf6uPYXxOhQIoH3Xr2-16" value="Data Processing" style="rounded=0;whiteSpace=wrap;html=1;" vertex="1" parent="1">
          <mxGeometry x="380" y="350" width="120" height="60" as="geometry" />
        </mxCell>
        <mxCell id="gaTf6uPYXxOhQIoH3Xr2-18" value="Raw Datawarehousing" style="shape=cylinder3;whiteSpace=wrap;html=1;boundedLbl=1;backgroundOutline=1;size=15;" vertex="1" parent="1">
          <mxGeometry x="380" y="465" width="120" height="80" as="geometry" />
        </mxCell>
        <mxCell id="gaTf6uPYXxOhQIoH3Xr2-20" value="Database&lt;br&gt;SQL&lt;br&gt;Azure" style="shape=cylinder3;whiteSpace=wrap;html=1;boundedLbl=1;backgroundOutline=1;size=15;" vertex="1" parent="1">
          <mxGeometry x="625" y="455" width="70" height="90" as="geometry" />
        </mxCell>
        <mxCell id="gaTf6uPYXxOhQIoH3Xr2-21" style="edgeStyle=orthogonalEdgeStyle;rounded=0;orthogonalLoop=1;jettySize=auto;html=1;exitX=1;exitY=0.5;exitDx=0;exitDy=0;entryX=0;entryY=0.5;entryDx=0;entryDy=0;entryPerimeter=0;" edge="1" parent="1" source="gaTf6uPYXxOhQIoH3Xr2-16" target="gaTf6uPYXxOhQIoH3Xr2-20">
          <mxGeometry relative="1" as="geometry" />
        </mxCell>
        <mxCell id="gaTf6uPYXxOhQIoH3Xr2-22" value="Data Visualization and Reporting" style="shape=document;whiteSpace=wrap;html=1;boundedLbl=1;" vertex="1" parent="1">
          <mxGeometry x="600" y="340" width="120" height="80" as="geometry" />
        </mxCell>
      </root>
    </mxGraphModel>
  </diagram>
</mxfile>
